<svg width="56" height="30" viewBox="0 0 56 30" fill="none" xmlns="http://www.w3.org/2000/svg">
<g clip-path="url(#clip0_1_70723)">
<path d="M19.7752 2.27246L19.268 5.95654L19.628 5.96973C21.9302 6.05225 23.6362 6.87695 24.4301 8.29248C25.2272 9.60938 25.4283 11.2021 24.984 12.6758C24.5519 13.9507 23.5974 14.9805 22.3595 15.5083C21.3339 15.917 20.2346 16.1089 19.1312 16.0713C18.0473 16.0645 16.9666 15.9541 15.9038 15.7417C15.3326 15.6196 14.9453 15.0864 15.0063 14.5059C15.0673 13.9243 15.5569 13.4834 16.141 13.4834C16.222 13.4844 16.3027 13.4932 16.3819 13.5103C17.2909 13.6904 18.2149 13.7842 19.1415 13.7915C19.9199 13.8252 20.6971 13.7031 21.4279 13.4331C22.0805 13.1709 22.5856 12.6357 22.8104 11.9692C23.0508 11.1035 22.9146 10.1768 22.4355 9.4165C21.8974 8.45703 20.4126 8.25293 19.2624 8.25293C18.8798 8.25195 18.4975 8.27539 18.1179 8.32373C18.0593 8.33496 17.9996 8.34082 17.9398 8.34082C17.6105 8.33887 17.2982 8.19482 17.0827 7.9458C16.8673 7.69678 16.7697 7.36719 16.8151 7.04053L17.6521 0.98291C17.7323 0.422363 18.2104 0.00439453 18.7769 0H24.8342C25.4647 0 25.9759 0.510742 25.9759 1.1416C25.9759 1.77197 25.4647 2.28271 24.8342 2.28271L19.7752 2.27246Z" fill="#45536D"/>
<path d="M31.4133 26.6006C30.9804 27.874 30.026 28.9028 28.7887 29.4302C27.7628 29.8384 26.6638 30.0303 25.5604 29.9937C24.4763 29.9854 23.3954 29.8745 22.3322 29.6631C21.7589 29.5435 21.369 29.0093 21.4301 28.4272C21.4913 27.8442 21.9836 27.4028 22.5692 27.4053C22.6512 27.4053 22.733 27.4146 22.813 27.4326C23.7208 27.6128 24.6434 27.707 25.5688 27.7144C26.348 27.7441 27.1253 27.6196 27.856 27.3477C28.5091 27.0869 29.0147 26.5527 29.2386 25.8857C29.4785 25.0205 29.3423 24.0938 28.8636 23.3335C28.4466 22.5918 27.2796 22.1641 25.6579 22.1641C25.2847 22.1641 24.912 22.1899 24.5424 22.2417C24.4848 22.2515 24.4265 22.2563 24.368 22.2563C24.0682 22.2583 23.7803 22.1396 23.5682 21.9277C23.3115 21.6733 23.1898 21.3135 23.2395 20.9556L23.5141 18.9565L25.9325 16.5195L26.1893 16.2617L26.1537 16.5195L25.6907 19.8755L26.0525 19.8896C28.3528 19.9712 30.0588 20.7969 30.8528 22.2124C31.6508 23.5293 31.8524 25.1226 31.4076 26.5962L31.4133 26.6006Z" fill="#45536D"/>
<path d="M32.3534 15.0693C32.3546 15.7012 31.844 16.2139 31.2126 16.2153H26.2061L26.522 15.8975L28.4755 13.9287H31.2126C31.8422 13.9297 32.3521 14.4399 32.3534 15.0693Z" fill="#45536D"/>
<path d="M36.6879 14.4238C34.2685 14.4238 32.376 16.9409 32.376 20.1509C32.376 23.3613 34.2723 25.8794 36.6879 25.8794C39.1035 25.8794 40.9998 23.3643 40.9998 20.1509C40.9998 16.938 39.1082 14.4238 36.6879 14.4238ZM36.6879 23.5962C35.6043 23.5962 34.6557 21.9868 34.6557 20.1484C34.6557 18.3096 35.6071 16.7036 36.6879 16.7036C37.7686 16.7036 38.722 18.314 38.722 20.1484C38.722 21.9829 37.7705 23.5962 36.6879 23.5962Z" fill="#45536D"/>
<path d="M34.5912 5.9209C34.3841 2.96631 32.5571 0.757812 30.2943 0.757812C27.875 0.757812 25.9824 3.27393 25.9824 6.48633C25.9824 8.86523 27.066 10.978 28.7008 11.8218L30.643 9.88135C30.5327 9.91553 30.4181 9.93311 30.3027 9.93359C29.2191 9.93311 28.2705 8.32568 28.2705 6.4873C28.2705 4.64941 29.222 3.04395 30.3027 3.04395C31.3835 3.04395 32.3369 4.65234 32.3369 6.4873C32.342 7.24414 32.1747 7.99219 31.8475 8.67432L34.5912 5.9209Z" fill="#45536D"/>
</g>
<defs>
<clipPath id="clip0_1_70723">
<rect width="56" height="29.9976" fill="white"/>
</clipPath>
</defs>
</svg>
