<svg width="48" height="48" viewBox="0 0 48 48" fill="none" xmlns="http://www.w3.org/2000/svg">
<path d="M23.7505 40C23.8838 40 24.0171 39.9667 24.1505 39.9C24.2838 39.8333 24.3838 39.7667 24.4505 39.7L40.8505 23.3C41.2505 22.9 41.5421 22.45 41.7255 21.95C41.9088 21.45 42.0005 20.95 42.0005 20.45C42.0005 19.9167 41.9088 19.4083 41.7255 18.925C41.5421 18.4417 41.2505 18.0167 40.8505 17.65L32.3505 9.15C31.9838 8.75 31.5588 8.45833 31.0755 8.275C30.5921 8.09167 30.0838 8 29.5505 8C29.0505 8 28.5505 8.09167 28.0505 8.275C27.5505 8.45833 27.1005 8.75 26.7005 9.15L26.1505 9.7L29.8505 13.45C30.3505 13.9167 30.7171 14.45 30.9505 15.05C31.1838 15.65 31.3005 16.2833 31.3005 16.95C31.3005 18.35 30.8255 19.525 29.8755 20.475C28.9255 21.425 27.7505 21.9 26.3505 21.9C25.6838 21.9 25.0421 21.7833 24.4255 21.55C23.8088 21.3167 23.2671 20.9667 22.8005 20.5L19.0505 16.8L10.3005 25.55C10.2005 25.65 10.1255 25.7583 10.0755 25.875C10.0255 25.9917 10.0005 26.1167 10.0005 26.25C10.0005 26.5167 10.1005 26.7583 10.3005 26.975C10.5005 27.1917 10.7338 27.3 11.0005 27.3C11.1338 27.3 11.2671 27.2667 11.4005 27.2C11.5338 27.1333 11.6338 27.0667 11.7005 27L18.5005 20.2L21.3005 23L14.5505 29.8C14.4505 29.9 14.3755 30.0083 14.3255 30.125C14.2755 30.2417 14.2505 30.3667 14.2505 30.5C14.2505 30.7667 14.3505 31 14.5505 31.2C14.7505 31.4 14.9838 31.5 15.2505 31.5C15.3838 31.5 15.5171 31.4667 15.6505 31.4C15.7838 31.3333 15.8838 31.2667 15.9505 31.2L22.7505 24.45L25.5505 27.25L18.8005 34.05C18.7005 34.1167 18.6255 34.2167 18.5755 34.35C18.5255 34.4833 18.5005 34.6167 18.5005 34.75C18.5005 35.0167 18.6005 35.25 18.8005 35.45C19.0005 35.65 19.2338 35.75 19.5005 35.75C19.6338 35.75 19.7588 35.725 19.8755 35.675C19.9921 35.625 20.1005 35.55 20.2005 35.45L27.0005 28.7L29.8005 31.5L23.0005 38.3C22.9005 38.4 22.8255 38.5083 22.7755 38.625C22.7255 38.7417 22.7005 38.8667 22.7005 39C22.7005 39.2667 22.8088 39.5 23.0255 39.7C23.2421 39.9 23.4838 40 23.7505 40ZM23.7005 44C22.4671 44 21.3755 43.5917 20.4255 42.775C19.4755 41.9583 18.9171 40.9333 18.7505 39.7C17.6171 39.5333 16.6671 39.0667 15.9005 38.3C15.1338 37.5333 14.6671 36.5833 14.5005 35.45C13.3671 35.2833 12.4255 34.8083 11.6755 34.025C10.9255 33.2417 10.4671 32.3 10.3005 31.2C9.0338 31.0333 8.00047 30.4833 7.20047 29.55C6.40047 28.6167 6.00047 27.5167 6.00047 26.25C6.00047 25.5833 6.12547 24.9417 6.37547 24.325C6.62547 23.7083 6.9838 23.1667 7.45047 22.7L19.0505 11.15L25.6005 17.7C25.6671 17.8 25.7671 17.875 25.9005 17.925C26.0338 17.975 26.1671 18 26.3005 18C26.6005 18 26.8505 17.9083 27.0505 17.725C27.2505 17.5417 27.3505 17.3 27.3505 17C27.3505 16.8667 27.3255 16.7333 27.2755 16.6C27.2255 16.4667 27.1505 16.3667 27.0505 16.3L19.9005 9.15C19.5338 8.75 19.1088 8.45833 18.6255 8.275C18.1421 8.09167 17.6338 8 17.1005 8C16.6005 8 16.1005 8.09167 15.6005 8.275C15.1005 8.45833 14.6505 8.75 14.2505 9.15L7.20047 16.25C6.90047 16.55 6.65047 16.9 6.45047 17.3C6.25047 17.7 6.11714 18.1 6.05047 18.5C5.9838 18.9 5.9838 19.3083 6.05047 19.725C6.11714 20.1417 6.25047 20.5333 6.45047 20.9L3.55047 23.8C2.9838 23.0333 2.56714 22.1917 2.30047 21.275C2.0338 20.3583 1.9338 19.4333 2.00047 18.5C2.06714 17.5667 2.30047 16.6583 2.70047 15.775C3.10047 14.8917 3.65047 14.1 4.35047 13.4L11.4005 6.35C12.2005 5.58333 13.0921 5 14.0755 4.6C15.0588 4.2 16.0671 4 17.1005 4C18.1338 4 19.1421 4.2 20.1255 4.6C21.1088 5 21.9838 5.58333 22.7505 6.35L23.3005 6.9L23.8505 6.35C24.6505 5.58333 25.5421 5 26.5255 4.6C27.5088 4.2 28.5171 4 29.5505 4C30.5838 4 31.5921 4.2 32.5755 4.6C33.5588 5 34.4338 5.58333 35.2005 6.35L43.6505 14.8C44.4171 15.5667 45.0005 16.45 45.4005 17.45C45.8005 18.45 46.0005 19.4667 46.0005 20.5C46.0005 21.5333 45.8005 22.5417 45.4005 23.525C45.0005 24.5083 44.4171 25.3833 43.6505 26.15L27.2505 42.5C26.7838 42.9667 26.2421 43.3333 25.6255 43.6C25.0088 43.8667 24.3671 44 23.7005 44Z" fill="#FF8C00"/>
</svg>
