<svg width="32" height="32" viewBox="0 0 32 32" fill="none" xmlns="http://www.w3.org/2000/svg">
<path d="M31.9883 11.124C31.9299 11.4913 31.877 11.8618 31.8105 12.2291C30.9044 17.065 26.7181 20.5939 21.7986 20.6689C16.8792 20.7439 12.5873 17.3441 11.5343 12.538C10.5097 7.66168 13.0808 2.74236 17.6693 0.799628C18.6207 0.401836 19.6268 0.15011 20.6534 0.052977C20.7261 0.0423511 20.7975 0.0246068 20.8667 1.11235e-07L22.3671 0C22.5314 0.0248883 22.6928 0.0529766 22.8571 0.0711095C27.3716 0.643705 30.9967 4.0718 31.8204 8.54737C31.8844 8.90291 31.9346 9.26273 31.9929 9.62183V11.1222L31.9883 11.124ZM24.7888 12.2099C24.2405 11.6616 23.6976 11.1158 23.1465 10.5786C22.9932 10.4311 22.9712 10.3226 23.1408 10.1722C23.3051 10.03 23.4526 9.86609 23.6055 9.71001C24.0037 9.31891 24.4016 8.92211 24.7717 8.55483L23.4384 7.17957C22.8926 7.73636 22.3501 8.28177 21.8182 8.83572C21.6706 8.98896 21.5622 9.01349 21.4118 8.84389C21.2696 8.67963 21.1056 8.53208 20.9496 8.37919C20.5585 7.98098 20.1645 7.58312 19.7972 7.213L18.4348 8.53386C18.9859 9.08211 19.5288 9.63072 20.0799 10.1651C20.2331 10.3127 20.2552 10.4211 20.0856 10.5715C19.9078 10.7301 19.746 10.9082 19.5761 11.0782C19.1921 11.4568 18.8106 11.8355 18.4543 12.186L19.7905 13.5638C20.3334 13.007 20.876 12.4616 21.4079 11.9048C21.5554 11.7516 21.6639 11.7324 21.8143 11.8991C21.9952 12.0996 22.1958 12.2831 22.3831 12.4755C22.7387 12.8374 23.0942 13.1994 23.4299 13.5421L24.7884 12.2088L24.7888 12.2099Z" fill="#FF8C00"/>
<path d="M12.8093 18.771C12.7062 18.8795 12.6226 18.9687 12.5366 19.0576C11.5791 20.0151 10.6188 20.9672 9.66944 21.9333C9.48847 22.1171 9.37718 22.1253 9.19621 21.9333C8.67284 21.385 8.12956 20.8559 7.6094 20.3354L6.3568 21.5966L9.50055 24.7364C9.52011 24.7168 9.61468 24.6447 9.69824 24.5586C11.1347 23.1251 12.5701 21.6886 14.0046 20.2494C14.1717 20.0823 14.2891 20.0361 14.5003 20.1936C16.198 21.4544 18.2007 22.2407 20.3028 22.4716C20.5951 22.505 20.6342 22.622 20.6008 22.8723C20.0647 27.3815 16.6464 31.0118 12.1775 31.8178C8.98181 32.4024 6.12036 31.569 3.65108 29.4798C1.67686 27.8595 0.406075 25.5382 0.10485 23.002C-0.348117 19.4057 0.823057 16.3743 3.49535 13.9413C5.04551 12.5412 6.98942 11.6528 9.06252 11.397C9.34909 11.3578 9.48278 11.3888 9.52473 11.7283C9.809 14.296 10.914 16.7034 12.6756 18.5929C12.7172 18.6373 12.7506 18.6903 12.8121 18.7707L12.8093 18.771Z" fill="#FF8C00"/>
</svg>
